<svg xmlns="http://www.w3.org/2000/svg" height="32.417" width="238.526"><text y="7.375" x="2.375" style="line-height:1.25;-inkscape-font-specification:'Roboto Light'" font-weight="300" font-size="21.333" font-family="Roboto" letter-spacing="0" word-spacing="0" transform="translate(121.665 8.917)"/><g aria-label="helodali" style="line-height:25px;-inkscape-font-specification:'Roboto Light'" font-weight="300" font-size="21.333" font-family="Roboto" letter-spacing="0" word-spacing="0"><path d="M105.89 13.858q.983-1.616 2.517-2.5 1.533-.883 3.35-.883 2.9 0 4.316 1.633 1.417 1.634 1.434 4.9v11.834h-1.984v-11.85q-.016-2.417-1.033-3.6-1-1.184-3.217-1.184-1.85 0-3.283 1.167-1.417 1.15-2.1 3.117v12.35h-1.983v-25.6h1.983zM129.623 29.175q-2.3 0-4.166-1.133-1.85-1.134-2.884-3.15-1.033-2.034-1.033-4.55v-.717q0-2.6 1-4.683 1.017-2.084 2.817-3.267 1.8-1.2 3.9-1.2 3.283 0 5.2 2.25 1.933 2.233 1.933 6.117v1.116h-12.867v.384q0 3.066 1.75 5.116 1.767 2.034 4.434 2.034 1.6 0 2.816-.584 1.234-.583 2.234-1.866l1.25.95q-2.2 3.183-6.384 3.183zm-.366-17q-2.25 0-3.8 1.65-1.534 1.65-1.867 4.433h10.817v-.216q-.084-2.6-1.484-4.234-1.4-1.633-3.666-1.633zM142.54 28.842h-2v-25.6h2zM146.873 19.558q0-2.6 1-4.683 1.017-2.083 2.85-3.233 1.85-1.167 4.184-1.167 3.6 0 5.833 2.533 2.233 2.517 2.233 6.684v.416q0 2.617-1.016 4.717-1 2.083-2.834 3.217-1.833 1.133-4.183 1.133-3.583 0-5.833-2.517-2.234-2.533-2.234-6.7zm2 .55q0 3.234 1.667 5.317 1.683 2.067 4.4 2.067 2.7 0 4.367-2.067 1.683-2.083 1.683-5.483v-.384q0-2.066-.767-3.783-.766-1.717-2.15-2.65-1.383-.95-3.166-.95-2.667 0-4.35 2.1-1.684 2.083-1.684 5.467zM166.307 19.658q0-4.2 1.866-6.683 1.884-2.5 5.1-2.5 3.65 0 5.567 2.883V3.242h1.983v25.6h-1.866l-.084-2.4q-1.916 2.733-5.633 2.733-3.117 0-5.033-2.5-1.9-2.517-1.9-6.783zm2.016.35q0 3.45 1.384 5.45 1.383 1.984 3.9 1.984 3.683 0 5.233-3.25v-8.467q-1.55-3.517-5.2-3.517-2.517 0-3.917 1.984-1.4 1.966-1.4 5.816zM197.49 28.842q-.3-.85-.383-2.517-1.05 1.367-2.684 2.117-1.616.733-3.433.733-2.6 0-4.217-1.45-1.6-1.45-1.6-3.667 0-2.633 2.184-4.166 2.2-1.534 6.116-1.534h3.617v-2.05q0-1.933-1.2-3.033-1.183-1.117-3.467-1.117-2.083 0-3.45 1.067-1.366 1.067-1.366 2.567l-2-.017q0-2.15 2-3.717 2-1.583 4.916-1.583 3.017 0 4.75 1.517 1.75 1.5 1.8 4.2v8.533q0 2.617.55 3.917v.2zm-6.267-1.434q2 0 3.567-.966 1.583-.967 2.3-2.584v-3.966h-3.567q-2.983.033-4.666 1.1-1.684 1.05-1.684 2.9 0 1.516 1.117 2.516 1.133 1 2.933 1zM206.607 28.842h-2v-25.6h2zM214.273 28.842h-2V10.808h2zm-2.35-23.25q0-.567.367-.95.367-.4 1-.4t1 .4q.383.383.383.95 0 .566-.383.95-.367.383-1 .383t-1-.383q-.367-.384-.367-.95z"/></g><g fill="none" stroke="#000"><path d="M38.688 34.396l7.124-13.313M.188 21.333l8.374 12.813M8.063 34.02l30.874.126M13.188 27.646h6.187" transform="matrix(1.50468 0 0 1.60232 24.2 -27.423)"/></g></svg>