<?xml version="1.0" encoding="UTF-8" standalone="no"?>
<svg
   xmlns:dc="http://purl.org/dc/elements/1.1/"
   xmlns:cc="http://creativecommons.org/ns#"
   xmlns:rdf="http://www.w3.org/1999/02/22-rdf-syntax-ns#"
   xmlns:svg="http://www.w3.org/2000/svg"
   xmlns="http://www.w3.org/2000/svg"
   id="SVGRoot"
   version="1.1"
   viewBox="0 0 238.52596 32.416668"
   height="32.416668"
   width="238.52597">
  <defs
     id="defs14" />
  <metadata
     id="metadata17">
    <rdf:RDF>
      <cc:Work
         rdf:about="">
        <dc:format>image/svg+xml</dc:format>
        <dc:type
           rdf:resource="http://purl.org/dc/dcmitype/StillImage" />
        <dc:title></dc:title>
      </cc:Work>
    </rdf:RDF>
  </metadata>
  <g
     transform="translate(121.66531,8.9166673)"
     id="layer1">
    <text
       id="text3721"
       y="7.375"
       x="2.375"
       style="font-style:normal;font-variant:normal;font-weight:300;font-stretch:normal;font-size:21.33333397px;line-height:1.25;font-family:Roboto;-inkscape-font-specification:'Roboto Light';letter-spacing:0px;word-spacing:0px;fill:#000000;fill-opacity:1;stroke:none"
       xml:space="preserve"><tspan
         y="26.041668"
         x="2.375"
         id="tspan3719" /></text>
    <g
       transform="matrix(1.6,0,0,1.6,1.4413942,-4.3749998)"
       id="g4067">
      <g
         aria-label="helodali"
         style="font-style:normal;font-variant:normal;font-weight:300;font-stretch:normal;font-size:21.33333397px;line-height:25px;font-family:Roboto;-inkscape-font-specification:'Roboto Light';letter-spacing:0px;word-spacing:0px;fill:#000000;fill-opacity:1;stroke:none;image-rendering:auto"
         id="text3725">
        <path
           d="m -10.760417,5.8229164 q 0.614584,-1.0104167 1.5729171,-1.5625001 0.9583334,-0.5520833 2.0937501,-0.5520833 1.8125,0 2.6979167,1.0208334 0.8854167,1.0208333 0.8958334,3.0625 V 15.1875 H -4.7395831 V 7.7812498 q -0.010417,-1.5104167 -0.6458333,-2.2500001 -0.625,-0.7395833 -2.0104167,-0.7395833 -1.1562501,0 -2.0520834,0.7291666 -0.8854165,0.7187501 -1.3125005,1.9479168 V 15.1875 H -12 V -0.81250048 h 1.239583 z"
           id="path3746" />
        <path
           d="m 4.0729175,15.395833 q -1.4375001,0 -2.6041668,-0.708333 -1.15625,-0.708333 -1.80208335,-1.96875 Q -0.979166,11.447917 -0.979166,9.8749998 V 9.4270832 q 0,-1.6250001 0.62500002,-2.9270835 Q 0.2812507,5.1979164 1.4062507,4.458333 q 1.1250001,-0.75 2.4375001,-0.75 2.0520834,0 3.2500001,1.40625 1.2083334,1.3958334 1.2083334,3.8229168 V 9.6354165 H 0.26041737 v 0.2395833 q 0,1.9166672 1.09375003,3.1979172 1.1041667,1.270833 2.7708334,1.270833 1,0 1.7604167,-0.364583 0.7708334,-0.364584 1.3958334,-1.166667 l 0.78125,0.59375 q -1.375,1.989583 -3.9895834,1.989583 z m -0.2291667,-10.625 q -1.40625,0 -2.3750001,1.0312501 -0.95833333,1.03125 -1.16666666,2.7708334 H 7.0625009 V 8.4374998 Q 7.0104176,6.8124998 6.1354175,5.7916664 5.2604175,4.770833 3.8437508,4.770833 Z"
           id="path3748" />
        <path
           d="m 12.145833,15.1875 h -1.25 V -0.81250048 h 1.25 z"
           id="path3750" />
        <path
           d="m 14.854168,9.3854165 q 0,-1.6250001 0.625,-2.9270834 0.635417,-1.3020834 1.78125,-2.0208334 1.15625,-0.7291667 2.614583,-0.7291667 2.250001,0 3.645834,1.5833334 1.395833,1.5729167 1.395833,4.1770834 v 0.2604167 q 0,1.6354165 -0.635416,2.9479165 -0.625,1.302084 -1.770834,2.010417 -1.145833,0.708333 -2.614583,0.708333 -2.239584,0 -3.645834,-1.572916 -1.395833,-1.583334 -1.395833,-4.1875005 z m 1.25,0.34375 q 0,2.0208335 1.041667,3.3229165 1.052083,1.291667 2.75,1.291667 1.6875,0 2.729167,-1.291667 Q 23.677085,11.75 23.677085,9.6249998 V 9.3854165 q 0,-1.2916667 -0.479167,-2.3645834 -0.479166,-1.0729167 -1.34375,-1.6562501 -0.864583,-0.59375 -1.979167,-0.59375 -1.666666,0 -2.71875,1.3125001 -1.052083,1.3020833 -1.052083,3.4166667 z"
           id="path3752" />
        <path
           d="m 27,9.4479165 q 0,-2.6250001 1.166667,-4.1770835 1.177083,-1.5625 3.1875,-1.5625 2.28125,0 3.479167,1.8020834 v -6.32291688 h 1.239583 V 15.1875 H 34.90625 l -0.05208,-1.5 q -1.197917,1.708333 -3.520834,1.708333 -1.947916,0 -3.145833,-1.5625 Q 27,12.260417 27,9.5937498 Z m 1.260417,0.21875 q 0,2.1562505 0.864583,3.4062505 0.864583,1.239583 2.4375,1.239583 2.302084,0 3.270834,-2.03125 V 6.9895831 q -0.96875,-2.1979167 -3.25,-2.1979167 -1.572917,0 -2.447917,1.2395833 -0.875,1.2291667 -0.875,3.6354168 z"
           id="path3754" />
        <path
           d="M 46.489584,15.1875 Q 46.302084,14.65625 46.25,13.614583 45.59375,14.46875 44.572917,14.9375 q -1.010417,0.458333 -2.145834,0.458333 -1.625,0 -2.635416,-0.90625 -1,-0.90625 -1,-2.291666 0,-1.645834 1.364583,-2.6041672 1.375,-0.9583333 3.822917,-0.9583333 h 2.260417 V 7.3541664 q 0,-1.2083333 -0.75,-1.8958334 Q 44.75,4.7604164 43.322917,4.7604164 q -1.302084,0 -2.15625,0.6666666 Q 40.3125,6.0937497 40.3125,7.0312498 l -1.25,-0.010417 q 0,-1.3437501 1.25,-2.3229167 1.25,-0.9895834 3.072917,-0.9895834 1.885417,0 2.96875,0.9479167 1.09375,0.9375 1.125,2.6250001 v 5.3333335 q 0,1.635417 0.34375,2.447917 v 0.125 z m -3.916667,-0.895833 q 1.25,0 2.229167,-0.604167 0.989583,-0.604167 1.4375,-1.614583 V 9.5937498 h -2.229167 q -1.864584,0.020833 -2.916667,0.6875002 -1.052083,0.65625 -1.052083,1.8125 0,0.947917 0.697916,1.572917 0.708334,0.625 1.833334,0.625 z"
           id="path3756" />
        <path
           d="m 52.187501,15.1875 h -1.25 V -0.81250048 h 1.25 z"
           id="path3758" />
        <path
           d="m 56.979169,15.1875 h -1.25 V 3.9166663 h 1.25 z M 55.510419,0.65624957 q 0,-0.35416668 0.229167,-0.59375002 0.229167,-0.25000001 0.625,-0.25000001 0.395833,0 0.625,0.25000001 0.239583,0.23958334 0.239583,0.59375002 0,0.35416663 -0.239583,0.59375003 -0.229167,0.2395833 -0.625,0.2395833 -0.395833,0 -0.625,-0.2395833 -0.229167,-0.2395834 -0.229167,-0.59375003 z"
           id="path3760" />
      </g>
      <g
         id="g3937"
         transform="matrix(0.94042277,0,0,1.0014515,-61.816559,-19.977775)">
        <path
           id="path3899"
           d="m 38.6875,34.395834 7.125,-13.3125"
           style="fill:none;stroke:#000000;stroke-width:1px;stroke-linecap:butt;stroke-linejoin:miter;stroke-opacity:1" />
        <path
           id="path3923"
           d="m 0.1875,21.333334 8.375,12.8125"
           style="fill:none;stroke:#000000;stroke-width:1px;stroke-linecap:butt;stroke-linejoin:miter;stroke-opacity:1" />
        <path
           id="path3927"
           d="m 8.0625,34.020834 30.875,0.125"
           style="fill:none;stroke:#000000;stroke-width:1px;stroke-linecap:butt;stroke-linejoin:miter;stroke-opacity:1" />
        <path
           id="path3929"
           d="M 13.1875,27.645834 H 19.375"
           style="fill:none;stroke:#000000;stroke-width:1px;stroke-linecap:butt;stroke-linejoin:miter;stroke-opacity:1" />
      </g>
    </g>
  </g>
</svg>
